# xmcd
#
# Track frame offsets: 
#        150
#        15702
#        32134
#        52332
#        71173
#        91355
#        107444
#        127431
#        147629
#        164446
#
# Disc length: 2441 seconds
#
# Revision: 0
# Processed by: cddbd v1.5.2PL0 Copyright (c) Steve Scherf et al.
# Submitted via: ExactAudioCopy v1.0b1
#
DISCID=9b09870a
DTITLE=Brian White - Songs From The White House
DYEAR=1900
DGENRE=Country
TTITLE0=Rough and Ready
TTITLE1=Call It Quits
TTITLE2=Every Saint
TTITLE3=Old MacDonald
TTITLE4=Holy Place
TTITLE5=Vacation
TTITLE6=Right Down To The Heart
TTITLE7=Watching You
TTITLE8=You've Already Been There
TTITLE9=She Still Calls Me Daddy
EXTD=
EXTT0=
EXTT1=
EXTT2=
EXTT3=
EXTT4=
EXTT5=
EXTT6=
EXTT7=
EXTT8=
EXTT9=
PLAYORDER=
